# xmcd CD database file
#
# Track frame offsets:
#	150
#	14115
#	29847
#	47770
#	62665
#	83365
#	103492
#	123855
#	134292
#	155975
#	169885
#	193540
#	220445
#
# Disc length: 3262 seconds
#
# Revision: 0
# Processed by: cddbd v1.5PL3 Copyright (c) Steve Scherf et al.
# Submitted via: CDex 1.40Release
#
DISCID=c20cbc0d
DTITLE=Sophie Zelmani - Time to Kill
DYEAR=1999
DGENRE=Pop
TTITLE0=My
TTITLE1=Losing You
TTITLE2=Nostalgia
TTITLE3=Time to Kill
TTITLE4=Why
TTITLE5=Happier Man
TTITLE6=Dreamer
TTITLE7=On Your Way
TTITLE8=I Don't Know
TTITLE9=Gone So Long
TTITLE10=Fire
TTITLE11=Most Inconvenient Time
TTITLE12=Data
EXTD=YEAR: 1999 ID3G: 13
EXTT0=
EXTT1=
EXTT2=
EXTT3=
EXTT4=
EXTT5=
EXTT6=
EXTT7=
EXTT8=
EXTT9=
EXTT10=
EXTT11=
EXTT12=
PLAYORDER=
